# xmcd
#
# Track frame offsets:
# 150
# 22005
# 35224
# 60743
# 78080
# 88949
# 101443
# 121666
# 133861
# 148792
# 162861
# 173067
# 187971
# 205824
# 221232
#
# Disc length: 3132 seconds
#
#
# Revision: 0
# Processed by: cddbd v1.5.2PL0 Copyright (c) Steve Scherf et al.
# Submitted via: FreeRIP 2.942 
#
DISCID=d50c3a0f
DTITLE=All - Ons eie Country-Konings
DYEAR=2006
DGENRE=Country
TTITLE0=Back Home Again-Juanita Du Plessis
TTITLE1=Help Me Make It Trough The Night-Alan Ladd
TTITLE2=Nikita-Kurt Darren
TTITLE3=Old Flames-Gerrie Oretorius
TTITLE4=Accros Tha Bridge-Ronell Erasmus
TTITLE5=Mnr Robinson-Coleske
TTITLE6=El Paso-Jeffrey De Bruyn
TTITLE7=Massachusetts-Fredi Nest
TTITLE8=Song Sung Blue-Deon Van Der Merwe
TTITLE9=Thank God I'm A Country Boy-Die Campbells
TTITLE10=Medals For Mothers-Charlie Dicks
TTITLE11=Queen Of Hearts-Marita
TTITLE12=I An ISaid-Chris Brits
TTITLE13=You Asked Me To-Dusty Dixon
TTITLE14=Alittle Peace-Corlea Die Wnderkind
EXTD=
EXTT0=
EXTT1=
EXTT2=
EXTT3=
EXTT4=
EXTT5=
EXTT6=
EXTT7=
EXTT8=
EXTT9=
EXTT10=
EXTT11=
EXTT12=
EXTT13=
EXTT14=
PLAYORDER=
